<?xml version="1.0" encoding="utf-8"?>
<!-- Generator: Adobe Illustrator 26.0.2, SVG Export Plug-In . SVG Version: 6.00 Build 0)  -->
<svg version="1.1" id="Layer_1" xmlns="http://www.w3.org/2000/svg" xmlns:xlink="http://www.w3.org/1999/xlink" x="0px" y="0px"
	 viewBox="0 0 122.9 99.4" style="enable-background:new 0 0 122.9 99.4;" xml:space="preserve">
<style type="text/css">
	.st0{fill-rule:evenodd;clip-rule:evenodd;fill:#FF7477;}
</style>
<g>
	<path class="st0" d="M64.5,0.4h18.4c1.8,0,3.4,1.5,3.4,3.4v14.8H61.1V3.7C61.1,1.9,62.6,0.4,64.5,0.4L64.5,0.4z M86.3,27.6v45.2
		H61.1V27.6H86.3L86.3,27.6z M86.3,81.9v13.8c0,1.8-1.5,3.4-3.4,3.4H64.5c-1.8,0-3.4-1.5-3.4-3.4V81.9H86.3L86.3,81.9z"/>
	<path class="st0" d="M101.1,0.4h18.4c1.8,0,3.4,1.5,3.4,3.4v14.8h0H97.7V3.7C97.7,1.9,99.2,0.4,101.1,0.4L101.1,0.4z M122.9,27.6
		v45.2H97.7V27.6H122.9L122.9,27.6L122.9,27.6z M122.9,81.9v13.8c0,1.8-1.5,3.4-3.4,3.4h-18.4c-1.8,0-3.4-1.5-3.4-3.4V81.9H122.9
		L122.9,81.9z"/>
	<path class="st0" d="M36,0.2l17.3,6.3c1.7,0.6,2.6,2.6,2,4.3l-5.1,13.9l-23.6-8.6l5.1-13.9C32.3,0.5,34.2-0.4,36,0.2L36,0.2z
		 M47.1,33.3L31.6,75.8L8,67.2l15.5-42.5L47.1,33.3L47.1,33.3z M28.5,84.3l-4.7,13c-0.6,1.7-2.6,2.6-4.3,2L2.2,92.9
		c-1.7-0.6-2.6-2.6-2-4.3l4.7-13L28.5,84.3L28.5,84.3z"/>
</g>
</svg>
